<?xml version="1.0" encoding="utf-8"?>
<svg version="1.1" xmlns:xlink="http://www.w3.org/1999/xlink" width="141px" height="25px" xmlns="http://www.w3.org/2000/svg">
  <defs>
    <mask fill="white" id="clip14">
      <path d="M 0 22  L 0 3  C 0 1.31999999999999  1.31999999999999 0  3 0  L 48 0  L 62 0  L 138 0  C 139.68 0  141 1.31999999999999  141 3  L 141 22  C 141 23.68  139.68 25  138 25  L 3 25  C 1.31999999999999 25  0 23.68  0 22  Z " fill-rule="evenodd" />
    </mask>
  </defs>
  <g transform="matrix(1 0 0 1 -302 -141 )">
    <path d="M 0 22  L 0 3  C 0 1.31999999999999  1.31999999999999 0  3 0  L 48 0  L 62 0  L 138 0  C 139.68 0  141 1.31999999999999  141 3  L 141 22  C 141 23.68  139.68 25  138 25  L 3 25  C 1.31999999999999 25  0 23.68  0 22  Z " fill-rule="nonzero" fill="#ffffff" stroke="none" fill-opacity="0" transform="matrix(1 0 0 1 302 141 )" />
    <path d="M 0 22  L 0 3  C 0 1.31999999999999  1.31999999999999 0  3 0  L 48 0  L 62 0  L 138 0  C 139.68 0  141 1.31999999999999  141 3  L 141 22  C 141 23.68  139.68 25  138 25  L 3 25  C 1.31999999999999 25  0 23.68  0 22  Z " stroke-width="2" stroke="#797979" fill="none" transform="matrix(1 0 0 1 302 141 )" mask="url(#clip14)" />
  </g>
</svg>