<?xml version="1.0" encoding="utf-8"?>
<svg version="1.1" xmlns:xlink="http://www.w3.org/1999/xlink" width="15px" height="15px" xmlns="http://www.w3.org/2000/svg">
  <g transform="matrix(1 0 0 1 -108 -32 )">
    <path d="M 14.5563616071429 6.778125  C 14.8521205357143 7.615625  15 8.65625  15 9.9  C 15 10.9375  14.6456473214286 12.346875  13.9369419642857 14.128125  C 13.9202008928571 14.171875  13.8909040178571 14.246875  13.8490513392857 14.353125  C 13.8071986607143 14.459375  13.76953125 14.553125  13.7360491071429 14.634375  C 13.7025669642857 14.715625  13.6662946428571 14.784375  13.6272321428571 14.840625  C 13.5602678571429 14.946875  13.4821428571429 15  13.3928571428571 15  C 13.3091517857143 15  13.2435825892857 14.96875  13.1961495535714 14.90625  C 13.1487165178571 14.84375  13.125 14.765625  13.125 14.671875  C 13.125 14.615625  13.1319754464286 14.5328125  13.1459263392857 14.4234375  C 13.1598772321429 14.3140625  13.1668526785714 14.240625  13.1668526785714 14.203125  C 13.1947544642857 13.778125  13.2087053571429 13.39375  13.2087053571429 13.05  C 13.2087053571429 12.41875  13.1598772321429 11.853125  13.0622209821429 11.353125  C 12.9645647321429 10.853125  12.8292410714286 10.4203125  12.65625 10.0546875  C 12.4832589285714 9.6890625  12.2600446428571 9.3734375  11.9866071428571 9.1078125  C 11.7131696428571 8.8421875  11.4188058035714 8.625  11.103515625 8.45625  C 10.7882254464286 8.2875  10.4171316964286 8.1546875  9.990234375 8.0578125  C 9.56333705357143 7.9609375  9.13364955357143 7.89375  8.701171875 7.85625  C 8.26869419642857 7.81875  7.77901785714286 7.8  7.23214285714286 7.8  L 5.35714285714286 7.8  L 5.35714285714286 10.2  C 5.35714285714286 10.3625  5.30412946428571 10.503125  5.19810267857143 10.621875  C 5.09207589285714 10.740625  4.96651785714286 10.8  4.82142857142857 10.8  C 4.67633928571429 10.8  4.55078125 10.740625  4.44475446428571 10.621875  L 0.159040178571429 5.821875  C 0.0530133928571429 5.703125  0 5.5625  0 5.4  C 0 5.2375  0.0530133928571429 5.096875  0.159040178571429 4.978125  L 4.44475446428571 0.178125  C 4.55078125 0.0593749999999993  4.67633928571429 0  4.82142857142857 0  C 4.96651785714286 0  5.09207589285714 0.0593749999999993  5.19810267857143 0.178125  C 5.30412946428571 0.296874999999998  5.35714285714286 0.437499999999998  5.35714285714286 0.600000000000001  L 5.35714285714286 3  L 7.23214285714286 3  C 11.2109375 3  13.65234375 4.259375  14.5563616071429 6.778125  Z " fill-rule="nonzero" fill="#0318fd" stroke="none" transform="matrix(1 0 0 1 108 32 )" />
  </g>
</svg>