<?xml version="1.0" encoding="utf-8"?>
<svg version="1.1" xmlns:xlink="http://www.w3.org/1999/xlink" width="25px" height="21px" xmlns="http://www.w3.org/2000/svg">
  <g transform="matrix(1 0 0 1 -108 -27 )">
    <path d="M 24.2606026785714 9.489375  C 24.7535342261905 10.661875  25 12.11875  25 13.86  C 25 15.3125  24.409412202381 17.285625  23.2282366071429 19.779375  C 23.2003348214286 19.840625  23.1515066964286 19.945625  23.0817522321429 20.094375  C 23.0119977678571 20.243125  22.94921875 20.374375  22.8934151785714 20.488125  C 22.8376116071429 20.601875  22.7771577380952 20.698125  22.7120535714286 20.776875  C 22.6004464285714 20.925625  22.4702380952381 21  22.3214285714286 21  C 22.1819196428571 21  22.0726376488095 20.95625  21.9935825892857 20.86875  C 21.9145275297619 20.78125  21.875 20.671875  21.875 20.540625  C 21.875 20.461875  21.8866257440476 20.3459375  21.9098772321429 20.1928125  C 21.9331287202381 20.0396875  21.9447544642857 19.936875  21.9447544642857 19.884375  C 21.9912574404762 19.289375  22.0145089285714 18.75125  22.0145089285714 18.27  C 22.0145089285714 17.38625  21.9331287202381 16.594375  21.7703683035714 15.894375  C 21.6076078869048 15.194375  21.382068452381 14.5884375  21.09375 14.0765625  C 20.8054315476191 13.5646875  20.4334077380952 13.1228125  19.9776785714286 12.7509375  C 19.5219494047619 12.3790625  19.0313430059524 12.075  18.505859375 11.83875  C 17.9803757440476 11.6025  17.3618861607143 11.4165625  16.650390625 11.2809375  C 15.9388950892857 11.1453125  15.2227492559524 11.05125  14.501953125 10.99875  C 13.7811569940476 10.94625  12.9650297619048 10.92  12.0535714285714 10.92  L 8.92857142857143 10.92  L 8.92857142857143 14.28  C 8.92857142857143 14.5075  8.84021577380953 14.704375  8.66350446428571 14.870625  C 8.48679315476191 15.036875  8.27752976190476 15.12  8.03571428571429 15.12  C 7.79389880952381 15.12  7.58463541666667 15.036875  7.40792410714286 14.870625  L 0.265066964285714 8.150625  C 0.0883556547619048 7.984375  0 7.7875  0 7.56  C 0 7.3325  0.0883556547619048 7.135625  0.265066964285714 6.969375  L 7.40792410714286 0.249374999999999  C 7.58463541666667 0.083124999999999  7.79389880952381 0  8.03571428571429 0  C 8.27752976190476 0  8.48679315476191 0.083124999999999  8.66350446428571 0.249374999999999  C 8.84021577380953 0.415624999999997  8.92857142857143 0.612499999999998  8.92857142857143 0.840000000000001  L 8.92857142857143 4.2  L 12.0535714285714 4.2  C 18.6848958333333 4.2  22.75390625 5.963125  24.2606026785714 9.489375  Z " fill-rule="nonzero" fill="#d00e0e" stroke="none" transform="matrix(1 0 0 1 108 27 )" />
  </g>
</svg>